<svg xmlns="http://www.w3.org/2000/svg" viewBox="0 0 26 26">
  <path d="M3 1C1.898438 1 1 1.898438 1 3L1 5C1 6.101563 1.898438 7 3 7L5 7C6.101563 7 7 6.101563 7 5L7 3C7 1.898438 6.101563 1 5 1 Z M 12 1C10.898438 1 10 1.898438 10 3L10 5C10 6.101563 10.898438 7 12 7L14 7C15.101563 7 16 6.101563 16 5L16 3C16 1.898438 15.101563 1 14 1 Z M 21 1C19.898438 1 19 1.898438 19 3L19 5C19 6.101563 19.898438 7 21 7L23 7C24.101563 7 25 6.101563 25 5L25 3C25 1.898438 24.101563 1 23 1 Z M 3 10C1.898438 10 1 10.898438 1 12L1 14C1 15.101563 1.898438 16 3 16L5 16C6.101563 16 7 15.101563 7 14L7 12C7 10.898438 6.101563 10 5 10 Z M 12 10C10.898438 10 10 10.898438 10 12L10 14C10 15.101563 10.898438 16 12 16L14 16C15.101563 16 16 15.101563 16 14L16 12C16 10.898438 15.101563 10 14 10 Z M 21 10C19.898438 10 19 10.898438 19 12L19 14C19 15.101563 19.898438 16 21 16L23 16C24.101563 16 25 15.101563 25 14L25 12C25 10.898438 24.101563 10 23 10 Z M 3 19C1.898438 19 1 19.898438 1 21L1 23C1 24.101563 1.898438 25 3 25L5 25C6.101563 25 7 24.101563 7 23L7 21C7 19.898438 6.101563 19 5 19 Z M 12 19C10.898438 19 10 19.898438 10 21L10 23C10 24.101563 10.898438 25 12 25L14 25C15.101563 25 16 24.101563 16 23L16 21C16 19.898438 15.101563 19 14 19 Z M 21 19C19.898438 19 19 19.898438 19 21L19 23C19 24.101563 19.898438 25 21 25L23 25C24.101563 25 25 24.101563 25 23L25 21C25 19.898438 24.101563 19 23 19Z" fill="#515151" />
</svg>